<svg width="158" height="24" viewBox="0 0 158 24" fill="none" xmlns="http://www.w3.org/2000/svg">
<path d="M37.9453 15.7188C35.7578 15.6484 34.3828 14.3594 34.3828 12.3203C34.3828 10.2656 35.7891 9.01562 37.9453 8.92969V15.7188ZM42.8906 12.3281C42.8906 14.3828 41.4844 15.6328 39.3359 15.7188V8.92969C41.5156 9 42.8906 10.2891 42.8906 12.3281ZM37.9453 16.9766V18.1562H39.3359V16.9766C42.2891 16.8906 44.3125 15.1875 44.3125 12.3281C44.3125 9.48438 42.3203 7.74219 39.3359 7.67188V6.57031H37.9453V7.67188C34.9844 7.75781 32.9609 9.46094 32.9609 12.3203C32.9609 15.1641 34.9531 16.9062 37.9453 16.9766ZM50.0859 18.1484C52.4844 18.1484 53.9688 16.4922 53.9688 13.7891C53.9688 11.0781 52.4844 9.42969 50.0859 9.42969C47.6875 9.42969 46.2031 11.0781 46.2031 13.7891C46.2031 16.4922 47.6875 18.1484 50.0859 18.1484ZM50.0859 16.9375C48.4922 16.9375 47.5938 15.7812 47.5938 13.7891C47.5938 11.7891 48.4922 10.6406 50.0859 10.6406C51.6797 10.6406 52.5781 11.7891 52.5781 13.7891C52.5781 15.7812 51.6797 16.9375 50.0859 16.9375ZM60.3281 9.42969C59.1797 9.42969 58.1719 10.0156 57.6328 10.9844H57.5078V9.57812H56.2266V20.8125H57.5703V16.7344H57.6953C58.1562 17.625 59.125 18.1484 60.3281 18.1484C62.4688 18.1484 63.8672 16.4219 63.8672 13.7891C63.8672 11.1406 62.4766 9.42969 60.3281 9.42969ZM60.0078 16.9375C58.4922 16.9375 57.5312 15.7188 57.5312 13.7891C57.5312 11.8516 58.4922 10.6406 60.0156 10.6406C61.5547 10.6406 62.4766 11.8203 62.4766 13.7891C62.4766 15.7578 61.5547 16.9375 60.0078 16.9375ZM67.4766 18V12.0078H67.625L70.2891 17.7656H71.3359L74 12.0078H74.1484V18H75.5V9.57812H73.9297L70.9062 16.1094H70.7812L67.7656 9.57812H66.1328V18H67.4766ZM80.7812 16.9688C79.8047 16.9688 79.0781 16.4688 79.0781 15.6094C79.0781 14.7656 79.6406 14.3203 80.9219 14.2344L83.1875 14.0859V14.8594C83.1875 16.0625 82.1641 16.9688 80.7812 16.9688ZM80.5312 18.1484C81.6562 18.1484 82.5781 17.6562 83.125 16.7578H83.25V18H84.5312V12.2344C84.5312 10.4844 83.3828 9.42969 81.3281 9.42969C79.5312 9.42969 78.2031 10.3203 78.0234 11.6719H79.3828C79.5703 11.0078 80.2734 10.625 81.2812 10.625C82.5391 10.625 83.1875 11.1953 83.1875 12.2344V13L80.7578 13.1484C78.7969 13.2656 77.6875 14.1328 77.6875 15.6406C77.6875 17.1797 78.8984 18.1484 80.5312 18.1484ZM93.2656 9.57812H86.4531V10.7031H89.1875V18H90.5312V10.7031H93.2656V9.57812ZM96.5703 18L100.766 11.7188H100.891V18H102.234V9.57812H100.891L96.6953 15.8594H96.5703V9.57812H95.2266V18H96.5703ZM109.016 9.42969C107.867 9.42969 106.859 10.0156 106.32 10.9844H106.195V9.57812H104.914V20.8125H106.258V16.7344H106.383C106.844 17.625 107.812 18.1484 109.016 18.1484C111.156 18.1484 112.555 16.4219 112.555 13.7891C112.555 11.1406 111.164 9.42969 109.016 9.42969ZM108.695 16.9375C107.18 16.9375 106.219 15.7188 106.219 13.7891C106.219 11.8516 107.18 10.6406 108.703 10.6406C110.242 10.6406 111.164 11.8203 111.164 13.7891C111.164 15.7578 110.242 16.9375 108.695 16.9375ZM118.289 18.1484C120.688 18.1484 122.172 16.4922 122.172 13.7891C122.172 11.0781 120.688 9.42969 118.289 9.42969C115.891 9.42969 114.406 11.0781 114.406 13.7891C114.406 16.4922 115.891 18.1484 118.289 18.1484ZM118.289 16.9375C116.695 16.9375 115.797 15.7812 115.797 13.7891C115.797 11.7891 116.695 10.6406 118.289 10.6406C119.883 10.6406 120.781 11.7891 120.781 13.7891C120.781 15.7812 119.883 16.9375 118.289 16.9375ZM127.828 10.7031C128.773 10.7031 129.195 11.1719 129.195 11.875C129.195 12.6641 128.703 13.0781 127.609 13.0781H125.773V10.7031H127.828ZM127.727 14.2031C128.938 14.2031 129.562 14.6172 129.562 15.5547C129.562 16.4062 129.016 16.875 127.984 16.875H125.773V14.2031H127.727ZM124.43 18H128.016C129.828 18 130.898 17.0469 130.898 15.5781C130.898 14.5625 130.219 13.7812 129.148 13.6328V13.5078C129.938 13.3438 130.523 12.5625 130.523 11.7344C130.523 10.4297 129.594 9.57812 128 9.57812H124.43V18ZM135.797 16.9688C134.82 16.9688 134.094 16.4688 134.094 15.6094C134.094 14.7656 134.656 14.3203 135.938 14.2344L138.203 14.0859V14.8594C138.203 16.0625 137.18 16.9688 135.797 16.9688ZM135.547 18.1484C136.672 18.1484 137.594 17.6562 138.141 16.7578H138.266V18H139.547V12.2344C139.547 10.4844 138.398 9.42969 136.344 9.42969C134.547 9.42969 133.219 10.3203 133.039 11.6719H134.398C134.586 11.0078 135.289 10.625 136.297 10.625C137.555 10.625 138.203 11.1953 138.203 12.2344V13L135.773 13.1484C133.812 13.2656 132.703 14.1328 132.703 15.6406C132.703 17.1797 133.914 18.1484 135.547 18.1484ZM148.281 9.57812H141.469V10.7031H144.203V18H145.547V10.7031H148.281V9.57812ZM153.25 13.4062C154.352 13.4062 155.07 14.0859 155.07 15.1406C155.07 16.1875 154.359 16.875 153.25 16.875H151.586V13.4062H153.25ZM150.242 18H153.25C155.18 18 156.414 16.8906 156.414 15.1406C156.414 13.3906 155.18 12.2812 153.25 12.2812H151.586V9.57812H150.242V18Z" fill="#0D0D0D"/>
<g opacity="0.8">
<path d="M21 10H7" stroke="#0D0D0D" stroke-width="2" stroke-linecap="round" stroke-linejoin="round"/>
<path d="M11 6H3" stroke="#0D0D0D" stroke-width="2" stroke-linecap="round" stroke-linejoin="round"/>
<path d="M12 14H7" stroke="#0D0D0D" stroke-width="2" stroke-linecap="round" stroke-linejoin="round"/>
<path d="M7 18H3" stroke="#0D0D0D" stroke-width="2" stroke-linecap="round" stroke-linejoin="round"/>
</g>
</svg>
