<svg xmlns="http://www.w3.org/2000/svg" width="20" height="20" fill="none" style=""><rect id="backgroundrect" width="100%" height="100%" x="0" y="0" fill="none" stroke="none"/>

<g class="currentLayer" style=""><title>Layer 1</title><path d="M1 6H4C4.53043 6 5.03914 5.78929 5.41421 5.41421C5.78929 5.03914 6 4.53043 6 4V1M14 1V4C14 4.53043 14.2107 5.03914 14.5858 5.41421C14.9609 5.78929 15.4696 6 16 6H19M19 14H16C15.4696 14 14.9609 14.2107 14.5858 14.5858C14.2107 14.9609 14 15.4696 14 16V19M6 19V16C6 15.4696 5.78929 14.9609 5.41421 14.5858C5.03914 14.2107 4.53043 14 4 14H1" stroke="#0055fb" stroke-width="2" stroke-linecap="round" stroke-linejoin="round" id="svg_1" class="selected" stroke-opacity="1"/></g></svg>